<svg id="Capa_1" enable-background="new 0 0 512 512" height="512" viewBox="0 0 512 512" width="512" xmlns="http://www.w3.org/2000/svg"><g><path d="m430.158 204.655-132.777-112.849 89.691-89.692c2.819-2.819 7.39-2.819 10.209 0l112.604 112.604c2.819 2.819 2.819 7.39 0 10.209z" fill="#4a80aa"/><path d="m509.886 114.718-112.604-112.604c-2.819-2.819-7.39-2.819-10.209 0l-5.197 5.197 69.787 69.787c12.216 12.216 12.216 32.023 0 44.24l-52.411 52.411 30.905 30.905 79.728-79.728c2.82-2.818 2.82-7.389.001-10.208z" fill="#78d090"/><path d="m297.294 115.353-276.717 276.717c-27.436 27.436-27.436 71.917 0 99.353 27.435 27.436 71.917 27.435 99.353 0l276.717-276.717z" fill="#d3effb"/><path d="m297.294 115.353-10.302 10.302 38.416 38.416c16.586 16.586 16.586 43.477 0 60.063l-246.686 246.686c-16.031 16.031-37.881 22.694-58.75 19.991.2.205.402.409.605.612 27.435 27.435 71.917 27.435 99.353 0l287.519-287.519z" fill="#b1e4f9"/><g><path d="m331.907 114.131c-1.977 0-3.955-.755-5.463-2.263-3.018-3.018-3.018-7.909 0-10.928l58.701-58.7c3.018-3.016 7.91-3.016 10.927 0 3.018 3.018 3.018 7.909 0 10.928l-58.701 58.7c-1.509 1.508-3.487 2.263-5.464 2.263z" fill="#407093"/></g><g><path d="m361.934 136.432 58.7-58.701c3.018-3.018 3.018-7.909 0-10.928-3.017-3.016-7.909-3.016-10.927 0l-58.7 58.701c-3.018 3.018-3.018 7.909 0 10.928 1.509 1.508 3.486 2.263 5.463 2.263s3.955-.755 5.464-2.263z" fill="#407093"/></g><g><path d="m386.496 160.994 58.701-58.701c3.018-3.018 3.018-7.909 0-10.928-3.017-3.016-7.909-3.016-10.927 0l-58.701 58.701c-3.018 3.018-3.018 7.909 0 10.928 1.509 1.508 3.486 2.263 5.463 2.263 1.978 0 3.955-.755 5.464-2.263z" fill="#407093"/></g><path d="m509.886 114.718-112.604-112.604c-2.819-2.819-7.39-2.819-10.209 0l-5.197 5.197 69.787 69.787c12.216 12.216 12.216 32.023 0 44.24l-69.061 69.062 47.555 14.255 79.728-79.728c2.82-2.819 2.82-7.39.001-10.209z" fill="#407093"/><g><path d="m411.058 185.556 58.701-58.7c3.018-3.018 3.018-7.909 0-10.928-3.017-3.015-7.909-3.017-10.927 0l-58.701 58.7c-3.018 3.018-3.018 7.909 0 10.928 1.509 1.508 3.486 2.263 5.463 2.263 1.978 0 3.956-.755 5.464-2.263z" fill="#365e7d"/></g><path d="m410.597 228.656-127.253-127.253c-1.321-1.321-1.321-3.463 0-4.784l16.996-16.996c1.321-1.321 3.463-1.321 4.784 0l127.253 127.253c1.321 1.321 1.321 3.463 0 4.784l-16.996 16.996c-1.321 1.321-3.463 1.321-4.784 0z" fill="#5c90b9"/><g><path d="m164.238 360.953c-1.92 0-3.839-.732-5.304-2.197l-23.902-23.903c-2.929-2.929-2.929-7.678.001-10.606 2.929-2.928 7.678-2.929 10.606.001l23.902 23.903c2.929 2.929 2.929 7.678-.001 10.606-1.463 1.464-3.383 2.196-5.302 2.196z" fill="#f1f4f6"/></g><g><path d="m178.032 338.24c-1.92 0-3.839-.732-5.304-2.197l-14.983-14.984c-2.929-2.929-2.929-7.678.001-10.606 2.929-2.929 7.678-2.928 10.606.001l14.983 14.984c2.929 2.929 2.929 7.678-.001 10.606-1.463 1.464-3.383 2.196-5.302 2.196z" fill="#f1f4f6"/></g><g><path d="m232.751 319.944c-1.919 0-3.839-.732-5.304-2.196l-14.984-14.984c-2.929-2.93-2.929-7.678 0-10.607 2.93-2.928 7.678-2.928 10.607 0l14.984 14.984c2.929 2.93 2.929 7.678 0 10.607-1.464 1.464-3.384 2.196-5.303 2.196z" fill="#f1f4f6"/></g><g><path d="m141.525 374.747c-1.92 0-3.839-.732-5.304-2.197l-14.983-14.984c-2.929-2.929-2.929-7.678.001-10.606 2.929-2.928 7.678-2.929 10.606.001l14.983 14.984c2.929 2.929 2.929 7.678-.001 10.606-1.463 1.464-3.383 2.196-5.302 2.196z" fill="#f1f4f6"/></g><g><path d="m255.465 306.15c-1.919 0-3.839-.732-5.304-2.196l-23.903-23.903c-2.929-2.93-2.929-7.678 0-10.607 2.93-2.928 7.678-2.928 10.607 0l23.903 23.903c2.929 2.93 2.929 7.678 0 10.607-1.464 1.464-3.384 2.196-5.303 2.196z" fill="#f1f4f6"/></g><g><path d="m269.259 283.438c-1.919 0-3.839-.732-5.304-2.196l-14.984-14.984c-2.929-2.93-2.929-7.678 0-10.607 2.93-2.928 7.678-2.928 10.607 0l14.984 14.984c2.929 2.93 2.929 7.678 0 10.607-1.464 1.463-3.384 2.196-5.303 2.196z" fill="#f1f4f6"/></g><g><path d="m287.553 228.719c-1.919 0-3.839-.732-5.304-2.196l-14.983-14.983c-2.929-2.93-2.929-7.678 0-10.607 2.93-2.928 7.678-2.928 10.607 0l14.983 14.983c2.929 2.93 2.929 7.678 0 10.607-1.464 1.463-3.384 2.196-5.303 2.196z" fill="#f1f4f6"/></g><g><path d="m123.229 429.466c-1.92 0-3.839-.732-5.304-2.197l-14.983-14.984c-2.929-2.929-2.929-7.678.001-10.606 2.929-2.929 7.678-2.928 10.606.001l14.983 14.984c2.929 2.929 2.929 7.678-.001 10.606-1.463 1.463-3.383 2.196-5.302 2.196z" fill="#f1f4f6"/></g><g><path d="m109.436 452.179c-1.919 0-3.839-.732-5.304-2.196-2.929-2.93-2.929-7.678 0-10.607 15.833-15.832 14.646-32.467 13.272-51.728-1.428-20.027-3.047-42.727 17.628-63.401 20.677-20.675 43.376-19.054 63.401-17.627 19.259 1.372 35.895 2.561 51.727-13.272 15.832-15.832 14.646-32.466 13.272-51.727-1.429-20.027-3.047-42.727 17.627-63.401 2.93-2.928 7.678-2.928 10.607 0 2.929 2.93 2.929 7.678 0 10.607-15.833 15.832-14.646 32.466-13.272 51.727 1.429 20.027 3.047 42.727-17.627 63.401-20.675 20.675-43.376 19.054-63.401 17.627-19.257-1.371-35.894-2.562-51.727 13.272-15.833 15.832-14.646 32.466-13.272 51.727 1.428 20.027 3.047 42.727-17.628 63.402-1.465 1.463-3.385 2.196-5.303 2.196z" fill="#dd636e"/></g><path d="m260.768 303.954c10.469-10.47 15.222-21.459 17.177-32.357l-49.534 49.534c10.898-1.956 21.887-6.707 32.357-17.177z" fill="#da4a54"/><path d="m102.363 447.179c.361 1.024.951 1.985 1.769 2.803 1.465 1.464 3.385 2.196 5.304 2.196s3.839-.732 5.304-2.196c10.47-10.47 15.222-21.459 17.178-32.358z" fill="#da4a54"/><g><path d="m67.321 410.064c-1.919 0-3.839-.732-5.304-2.196-2.929-2.93-2.929-7.678 0-10.607 20.674-20.674 43.373-19.055 63.401-17.627 19.264 1.371 35.896 2.56 51.728-13.272 15.833-15.832 14.646-32.466 13.272-51.727-1.429-20.027-3.047-42.727 17.627-63.401 20.676-20.676 43.375-19.055 63.401-17.627 19.26 1.371 35.896 2.561 51.727-13.272 2.93-2.928 7.678-2.928 10.607 0 2.929 2.93 2.929 7.678 0 10.607-20.676 20.676-43.377 19.055-63.401 17.627-19.26-1.373-35.895-2.561-51.727 13.272-15.832 15.832-14.646 32.466-13.272 51.727 1.429 20.027 3.047 42.727-17.627 63.401s-43.373 19.055-63.401 17.627c-19.266-1.372-35.896-2.561-51.728 13.272-1.464 1.463-3.384 2.196-5.303 2.196z" fill="#6bbef6"/></g><g fill="#5ea5ec"><path d="m333.781 230.941c2.929-2.93 2.929-7.678 0-10.607-1.009-1.009-2.235-1.67-3.527-1.983-1.417 2.033-3.032 3.97-4.846 5.784l-23.985 23.984c10.899-1.956 21.888-6.709 32.358-17.178z"/><path d="m187.754 376.968c10.469-10.47 15.222-21.459 17.177-32.357l-49.534 49.534c10.898-1.955 21.887-6.708 32.357-17.177z"/></g></g></svg>