<svg id="Capa_1" enable-background="new 0 0 512 512" height="512" viewBox="0 0 512 512" width="512" xmlns="http://www.w3.org/2000/svg"><g><path d="m145.256 150.722h13.994v-1.543c0-5.532 3.079-10.494 8.037-12.95l94.449-46.796c1.624-.638 3.412-.979 5.239-.979h55.869c16.49 0 29.905 13.416 29.905 29.906v32.362h13.994c6.427 0 12.381 2.044 17.261 5.508v-51.096c.002-58.064-47.068-105.134-105.131-105.134h-45.746c-58.063 0-105.133 47.07-105.133 105.133v51.096c4.881-3.463 10.835-5.507 17.262-5.507z" fill="#bb5d4c"/><path d="m145.256 149.722h12.994v-.543c0-5.873 3.33-11.239 8.593-13.846l4.156-2.059v-28.14c0-58.064 47.069-105.134 105.133-105.134h-43.004c-58.063 0-105.133 47.07-105.133 105.133v49.855c4.928-3.325 10.868-5.266 17.261-5.266z" fill="#a44f3e"/><path d="m282.814 301.47c0 3.308 2.691 6 6 6h68.869c14.581-11.103 23.999-28.638 23.999-48.379 0-13.995-4.742-26.875-12.691-37.15-.743.056-1.49.093-2.247.093h-17.917c-9.391 29.855-34.749 52.688-66.013 58.476z" fill="#bb5d4c"/><g><path d="m387.863 306.469h-78.293l-1.886 1.266-48.09 83.24c-.75 1.299-2.094 2.075-3.594 2.075s-2.844-.775-3.594-2.074l-48.091-83.241-1.885-1.265h-78.293c-28.448 0-51.509 23.061-51.509 51.509v143.72c0 5.689 4.612 10.302 10.302 10.302h346.14c5.69 0 10.302-4.612 10.302-10.302v-143.72c0-28.448-23.061-51.51-51.509-51.51z" fill="#05e39c"/><g><path d="m113.835 501.698v-143.72c0-28.448 23.061-51.509 51.509-51.509h-41.207c-28.448 0-51.509 23.061-51.509 51.509v143.72c0 5.69 4.612 10.302 10.302 10.302h41.207c-5.69 0-10.302-4.612-10.302-10.302z" fill="#0ed290"/></g><path d="m283.815 301.469v-21.146c-5.373 1.061-10.921 1.63-16.6 1.63h-22.43c-5.68 0-11.227-.569-16.6-1.63v21.146c0 2.761-2.239 5-5 5h-20.755l49.11 85.006c1.983 3.432 6.937 3.432 8.92 0l49.109-85.006h-20.755c-2.761 0-4.999-2.238-4.999-5z" fill="#f6a96c"/><path d="m260.46 391.475 4.762-8.242 4.048-7.007-42.343-71.471c-.917 1.043-2.244 1.714-3.742 1.714h-20.755l49.11 85.006c.248.429.542.804.871 1.126 1.975 1.931 5.203 1.931 7.178 0 .329-.321.623-.697.871-1.126z" fill="#ea9b58"/><g><path d="m159.25 196.418v-46.697h-13.994c-17.069 0-30.906 13.837-30.906 30.906v11.502c0 17.069 13.837 30.905 30.906 30.905h18.256c-2.753-8.383-4.262-17.324-4.262-26.616z" fill="#f6a96c"/><path d="m366.744 149.722h-13.994v46.697c0 9.292-1.509 18.233-4.262 26.616h18.256c17.069 0 30.906-13.837 30.906-30.905v-11.502c0-17.069-13.837-30.906-30.906-30.906z" fill="#ffbd86"/></g><g><path d="m353.75 118.359c0-17.069-13.837-30.905-30.905-30.905h-55.869c-1.946 0-3.874.367-5.683 1.083l-94.45 46.796c-5.263 2.607-8.592 7.973-8.592 13.846v47.24c0 47.792 38.743 86.535 86.535 86.535h22.43c47.792 0 86.535-38.743 86.535-86.535v-78.06z" fill="#fed2a4"/></g><g><path d="m190.303 196.418v-68.247c0-1.679.28-3.312.792-4.855l-24.252 12.016c-5.263 2.608-8.592 7.973-8.592 13.846v47.24c0 47.792 38.743 86.535 86.535 86.535h22.43c1.615 0 3.218-.052 4.812-.14-45.555-2.497-81.725-40.218-81.725-86.395z" fill="#ffbd86"/></g><g><g><path d="m209.642 184.558c-4.143 0-7.5-3.358-7.5-7.5v-22.11c0-4.142 3.357-7.5 7.5-7.5s7.5 3.358 7.5 7.5v22.11c0 4.142-3.358 7.5-7.5 7.5z" fill="#bb5d4c"/></g><g><path d="m302.358 184.558c-4.143 0-7.5-3.358-7.5-7.5v-22.11c0-4.142 3.357-7.5 7.5-7.5s7.5 3.358 7.5 7.5v22.11c0 4.142-3.357 7.5-7.5 7.5z" fill="#bb5d4c"/></g></g><g><path d="m256 206.668h-11.637c-2.424 0-4.697-1.171-6.105-3.144-1.407-1.973-1.775-4.504-.986-6.796l11.637-33.824c1.348-3.915 5.615-6 9.531-4.652 3.917 1.347 6 5.615 4.652 9.532l-8.217 23.884h1.125c4.143 0 7.5 3.358 7.5 7.5s-3.357 7.5-7.5 7.5z" fill="#bb5d4c"/></g><g><path d="m256 250.379c-11.158 0-22.317-4.248-30.813-12.743-2.929-2.929-2.929-7.678 0-10.606 2.93-2.929 7.678-2.929 10.607 0 11.141 11.142 29.27 11.142 40.41 0 2.93-2.929 7.678-2.929 10.607 0s2.929 7.678 0 10.606c-8.494 8.495-19.653 12.743-30.811 12.743z" fill="#bb5d4c"/></g></g><g><g><path d="m184.918 406.922h-16.998c-1.707 0-3.091-1.384-3.091-3.091v-16.998c0-1.707-1.384-3.091-3.091-3.091h-19.573c-1.707 0-3.091 1.384-3.091 3.091v16.998c0 1.707-1.384 3.091-3.091 3.091h-16.998c-1.707 0-3.091 1.384-3.091 3.091v19.573c0 1.707 1.384 3.091 3.091 3.091h16.998c1.707 0 3.091 1.384 3.091 3.091v16.998c0 1.707 1.384 3.091 3.091 3.091h19.573c1.707 0 3.091-1.384 3.091-3.091v-16.998c0-1.707 1.384-3.091 3.091-3.091h16.998c1.707 0 3.091-1.384 3.091-3.091v-19.573c-.001-1.708-1.385-3.091-3.091-3.091z" fill="#26a6fe"/></g><g><path d="m152.27 445.113c-1.707 0-3.09-1.384-3.09-3.09v-16.998c0-1.707-1.384-3.091-3.091-3.091h-16.998c-1.707 0-3.091-1.384-3.091-3.091v-11.922h-7.014c-1.707 0-3.09 1.384-3.09 3.091v19.573c0 1.707 1.384 3.091 3.09 3.091h16.998c1.707 0 3.091 1.384 3.091 3.091v16.998c0 1.707 1.384 3.09 3.091 3.09h19.573c1.707 0 3.091-1.384 3.091-3.09v-7.652z" fill="#0593fc"/></g><g><path d="m393.014 461.006h-88.596c-1.707 0-3.091-1.384-3.091-3.091v-55.63c0-1.707 1.384-3.091 3.091-3.091h88.596c1.707 0 3.091 1.384 3.091 3.091v55.63c0 1.707-1.384 3.091-3.091 3.091z" fill="#fff"/></g><g><path d="m332.233 457.915v-55.63c0-1.707 1.384-3.091 3.091-3.091h-30.905c-1.707 0-3.091 1.384-3.091 3.091v55.63c0 1.707 1.384 3.091 3.091 3.091h30.905c-1.707 0-3.091-1.384-3.091-3.091z" fill="#f3f0f3"/></g><g><path d="m364.169 383.001h-30.905c-4.143 0-7.5-3.358-7.5-7.5s3.357-7.5 7.5-7.5h30.905c4.143 0 7.5 3.358 7.5 7.5s-3.357 7.5-7.5 7.5z" fill="#f3f0f3"/></g></g></g></svg>