<svg id="Capa_1" enable-background="new 0 0 512 512" height="512" viewBox="0 0 512 512" width="512" xmlns="http://www.w3.org/2000/svg"><g><g><path d="m146.801 158.103h12.449v-41.133c0-15.724 12.792-28.516 28.516-28.516h136.469c15.724 0 28.516 12.792 28.516 28.516v41.133h12.449c7.121 0 13.665 2.506 18.807 6.676v-80.47c-.001-46.563-37.747-84.309-84.31-84.309h-87.394c-46.563 0-84.309 37.746-84.309 84.309v80.47c5.142-4.171 11.686-6.676 18.807-6.676z" fill="#bb5d4c"/><path d="m146.801 157.103h11.449v-40.133c0-10.072 5.048-18.96 12.749-24.287v-8.374c0-46.563 37.746-84.309 84.308-84.309h-43.004c-46.562 0-84.309 37.746-84.309 84.309v79.181c5.211-4.002 11.729-6.387 18.807-6.387z" fill="#a44f3e"/><path d="m417.942 306.469h-86.739l-2.099 1-69.88 86.163c-.792.976-1.967 1.536-3.224 1.536-1.258 0-2.433-.56-3.225-1.536l-69.881-86.163-2.099-1h-86.737c-25.603 0-46.358 20.755-46.358 46.358v148.871c0 5.689 4.612 10.302 10.302 10.302h395.997c5.69 0 10.302-4.612 10.302-10.302v-148.87c-.001-25.603-20.756-46.359-46.359-46.359z" fill="#05e39c"/><g><path d="m90.763 501.698v-148.87c0-25.603 20.755-46.358 46.358-46.358h-43.063c-25.603 0-46.358 20.755-46.358 46.358v148.87c0 5.69 4.612 10.302 10.302 10.302h43.064c-5.69 0-10.303-4.612-10.303-10.302z" fill="#0ed290"/></g><path d="m295.048 301.469v-21.569c-5.583 1.329-11.398 2.053-17.383 2.053h-43.33c-5.984 0-11.799-.724-17.382-2.053v21.569c0 2.761-2.239 5-5 5h-31.156l71.203 87.793c2.061 2.542 5.94 2.542 8.001 0l71.202-87.793h-31.155c-2.762 0-5-2.238-5-5z" fill="#d88a55"/><path d="m258.822 395.322c.25-.165.491-.35.715-.563.019-.017.039-.032.057-.05.142-.139.278-.288.407-.447l14.958-18.443-59.93-70.435c-.851.669-1.91 1.085-3.076 1.085h-31.156l71.203 87.793c.129.159.265.308.407.447.569.556 1.237.953 1.947 1.192.178.06.358.109.54.149.364.079.735.119 1.107.119.186 0 .371-.01.556-.03.422-.045.838-.149 1.24-.298.356-.132.7-.305 1.025-.519z" fill="#c57a44"/><g><path d="m159.25 206.869v-49.766h-12.449c-17.069 0-30.905 13.837-30.905 30.906v11.502c0 17.069 13.837 30.905 30.905 30.905h16.252c-2.455-7.412-3.803-15.323-3.803-23.547z" fill="#d88a55"/><path d="m365.199 157.103h-12.449v49.766c0 8.224-1.348 16.135-3.803 23.546h16.252c17.069 0 30.905-13.837 30.905-30.905v-11.502c.001-17.069-13.836-30.905-30.905-30.905z" fill="#ea9b58"/></g><g><path d="m277.665 282.954h-43.33c-42.021 0-76.085-34.064-76.085-76.085v-89.899c0-16.301 13.215-29.516 29.516-29.516h136.468c16.301 0 29.516 13.215 29.516 29.516v89.899c0 42.02-34.064 76.085-76.085 76.085z" fill="#f6a96c"/></g><g><path d="m190.303 206.869v-89.899c0-16.301 13.215-29.516 29.516-29.516h-32.053c-16.301 0-29.516 13.215-29.516 29.516v89.899c0 42.02 34.064 76.085 76.085 76.085h32.053c-42.021 0-76.085-34.065-76.085-76.085z" fill="#ea9b58"/></g><g><g><path d="m207.722 184.558c-4.143 0-7.5-3.358-7.5-7.5v-22.11c0-4.142 3.357-7.5 7.5-7.5s7.5 3.358 7.5 7.5v22.11c0 4.142-3.358 7.5-7.5 7.5z" fill="#a44f3e"/></g><g><path d="m304.278 184.558c-4.143 0-7.5-3.358-7.5-7.5v-22.11c0-4.142 3.357-7.5 7.5-7.5s7.5 3.358 7.5 7.5v22.11c0 4.142-3.357 7.5-7.5 7.5z" fill="#a44f3e"/></g></g><g><path d="m256.002 206.668c-2.021 0-4.034-.811-5.513-2.413l-10.302-11.16c-1.927-2.087-2.509-5.083-1.505-7.74l10.302-27.242c1.467-3.875 5.794-5.829 9.669-4.362 3.874 1.465 5.827 5.793 4.362 9.668l-8.663 22.907 7.158 7.755c2.81 3.043 2.62 7.789-.424 10.598-1.44 1.331-3.265 1.989-5.084 1.989z" fill="#a44f3e"/></g></g><g><path d="m256 249.551c-14.969 0-29.938-5.697-41.333-17.093-2.929-2.929-2.929-7.677 0-10.606 2.93-2.929 7.678-2.929 10.607 0 16.941 16.941 44.51 16.941 61.451 0 2.931-2.929 7.679-2.929 10.607 0s2.929 7.678 0 10.606c-11.394 11.396-26.363 17.093-41.332 17.093z" fill="#a44f3e"/></g><g><g><g><path d="m169.465 401.771h-16.998c-1.707 0-3.091-1.384-3.091-3.091v-16.998c0-1.707-1.384-3.091-3.091-3.091h-19.573c-1.707 0-3.091 1.384-3.091 3.091v16.998c0 1.707-1.384 3.091-3.091 3.091h-16.998c-1.707 0-3.091 1.384-3.091 3.091v19.573c0 1.707 1.384 3.091 3.091 3.091h16.998c1.707 0 3.091 1.384 3.091 3.091v16.998c0 1.707 1.384 3.091 3.091 3.091h19.573c1.707 0 3.091-1.384 3.091-3.091v-16.998c0-1.707 1.384-3.091 3.091-3.091h16.998c1.707 0 3.091-1.384 3.091-3.091v-19.573c-.001-1.708-1.384-3.091-3.091-3.091z" fill="#26a6fe"/></g></g><g><path d="m137.157 440.113c-1.707 0-3.091-1.384-3.091-3.09v-16.998c0-1.707-1.384-3.091-3.091-3.091h-16.998c-1.707 0-3.09-1.384-3.09-3.091v-12.072h-7.354c-1.707 0-3.091 1.384-3.091 3.09v19.573c0 1.707 1.384 3.091 3.091 3.091h16.998c1.707 0 3.09 1.384 3.09 3.091v16.998c0 1.707 1.384 3.09 3.091 3.09h19.573c1.707 0 3.091-1.384 3.091-3.09v-7.501z" fill="#0593fc"/></g><g><g><path d="m408.467 455.855h-88.596c-1.707 0-3.091-1.384-3.091-3.091v-55.63c0-1.707 1.384-3.091 3.091-3.091h88.596c1.707 0 3.091 1.384 3.091 3.091v55.63c-.001 1.707-1.384 3.091-3.091 3.091z" fill="#fff"/></g></g><g><g><path d="m347.686 452.765v-55.63c0-1.707 1.384-3.091 3.091-3.091h-30.905c-1.707 0-3.091 1.384-3.091 3.091v55.63c0 1.707 1.384 3.091 3.091 3.091h30.905c-1.707-.001-3.091-1.385-3.091-3.091z" fill="#f3f0f3"/></g></g><g><g><path d="m379.622 377.85h-30.906c-4.143 0-7.5-3.358-7.5-7.5s3.357-7.5 7.5-7.5h30.906c4.143 0 7.5 3.358 7.5 7.5s-3.357 7.5-7.5 7.5z" fill="#f3f0f3"/></g></g></g></g></svg>