<?xml version="1.0" encoding="iso-8859-1"?>
<!-- Generator: Adobe Illustrator 19.0.0, SVG Export Plug-In . SVG Version: 6.00 Build 0)  -->
<svg version="1.1" id="Capa_1" xmlns="http://www.w3.org/2000/svg" xmlns:xlink="http://www.w3.org/1999/xlink" x="0px" y="0px"
	 viewBox="0 0 512 512" style="enable-background:new 0 0 512 512;" xml:space="preserve">
<path style="fill:#7CC3AC;" d="M270.94,485V13C400.76,13,506,118.661,506,249S400.76,485,270.94,485z"/>
<path style="fill:#61AE9F;" d="M506,249c0,130.339-105.24,236-235.06,236v-0.948C390.92,473.384,485,372.231,485,249
	S390.92,24.615,270.94,13.948V13C400.76,13,506,118.661,506,249z"/>
<path style="fill:#4A7273;" d="M278.41,7.5v486.993c0,4.143-3.344,7.5-7.47,7.5s-7.47-3.357-7.47-7.5V7.5
	c0-4.143,3.344-7.5,7.47-7.5S278.41,3.357,278.41,7.5z M348.627,231.5H326.22v-15h42.331c4.126,0,7.47-3.357,7.47-7.5
	s-3.344-7.5-7.47-7.5H323.73c-6.865,0-12.45,5.607-12.45,12.5v25c0,4.143,3.344,7.5,7.47,7.5h29.878c9.611,0,17.43,7.851,17.43,17.5
	c0,9.649-7.819,17.5-17.43,17.5h-19.917c-1.373,0-2.49-1.121-2.49-2.5c0-4.143-3.344-7.5-7.47-7.5s-7.47,3.357-7.47,7.5
	c0,9.649,7.819,17.5,17.43,17.5h19.917c17.849,0,32.37-14.579,32.37-32.5S366.476,231.5,348.627,231.5z M465.661,239v20
	c0,20.678-16.755,37.5-37.351,37.5s-37.35-16.822-37.35-37.5v-20c0-20.678,16.755-37.5,37.351-37.5S465.661,218.322,465.661,239z
	 M450.721,239c0-12.406-10.053-22.5-22.41-22.5s-22.41,10.094-22.41,22.5v20c0,12.406,10.054,22.5,22.41,22.5
	c12.357,0,22.41-10.094,22.41-22.5V239z"/>
<path style="fill:#FE5E47;" d="M6,263C6,132.661,111.24,27,241.06,27v472C111.24,499,6,393.339,6,263z"/>
<path style="fill:#F53737;" d="M241.06,27v472c-7.253,0-14.417-0.375-21.5-1.03V28.03C226.643,27.375,233.806,27,241.06,27z"/>
<path style="fill:#AF2B2B;" d="M248.53,19.508V504.5c0,4.143-3.344,7.5-7.47,7.5s-7.47-3.357-7.47-7.5V19.508
	c0-4.143,3.344-7.5,7.47-7.5C245.186,12.008,248.53,15.366,248.53,19.508z M83.686,245.5H61.279v-15h42.331
	c4.126,0,7.47-3.357,7.47-7.5s-3.344-7.5-7.47-7.5H58.789c-6.865,0-12.45,5.607-12.45,12.5v25c0,4.143,3.344,7.5,7.47,7.5h29.878
	c9.611,0,17.43,7.851,17.43,17.5s-7.819,17.5-17.43,17.5H63.769c-1.374,0-2.49-1.121-2.49-2.5c0-4.143-3.344-7.5-7.47-7.5
	s-7.47,3.357-7.47,7.5c0,9.649,7.819,17.5,17.43,17.5h19.917c17.849,0,32.37-14.579,32.37-32.5S101.536,245.5,83.686,245.5z
	 M200.721,253v20c0,20.678-16.755,37.5-37.351,37.5c-20.595,0-37.351-16.822-37.351-37.5v-20c0-20.678,16.755-37.5,37.351-37.5
	S200.721,232.322,200.721,253z M185.781,253c0-12.406-10.054-22.5-22.41-22.5c-12.357,0-22.41,10.094-22.41,22.5v20
	c0,12.406,10.053,22.5,22.41,22.5c12.357,0,22.41-10.094,22.41-22.5V253z"/>
<g>
</g>
<g>
</g>
<g>
</g>
<g>
</g>
<g>
</g>
<g>
</g>
<g>
</g>
<g>
</g>
<g>
</g>
<g>
</g>
<g>
</g>
<g>
</g>
<g>
</g>
<g>
</g>
<g>
</g>
</svg>
